<?xml version="1.0" standalone="no"?>
<!DOCTYPE svg PUBLIC "-//W3C//DTD SVG 20010904//EN"
 "http://www.w3.org/TR/2001/REC-SVG-20010904/DTD/svg10.dtd">
<svg version="1.0" xmlns="http://www.w3.org/2000/svg"
 width="1890.000000pt" height="1890.000000pt" viewBox="0 0 1890.000000 1890.000000"
 preserveAspectRatio="xMidYMid meet">
<metadata>
Created by potrace 1.14, written by Peter Selinger 2001-2017
</metadata>
<g transform="translate(0.000000,1890.000000) scale(0.100000,-0.100000)"
fill="#000000" stroke="none">
<path d="M9140 15003 c0 -10 -38 -13 -154 -13 -114 0 -156 -3 -159 -12 -4 -10
-8 -9 -16 2 -7 10 -11 11 -11 3 0 -9 -20 -13 -66 -13 -49 0 -63 -3 -58 -12 6
-10 4 -10 -8 0 -11 9 -18 10 -23 2 -3 -5 -28 -10 -56 -10 -32 0 -49 -4 -49
-12 0 -9 -4 -8 -10 2 -8 12 -11 13 -19 1 -6 -9 -23 -12 -55 -10 -25 2 -46 1
-46 -3 0 -4 -9 -5 -20 -3 -11 2 -20 0 -20 -6 0 -5 -9 -9 -19 -9 -11 0 -22 -4
-25 -8 -3 -5 -36 -10 -73 -11 -37 -1 -72 -6 -78 -12 -5 -5 -14 -9 -20 -9 -5 0
-3 5 5 11 13 9 13 10 0 5 -8 -3 -23 -9 -32 -12 -10 -4 -18 -11 -18 -18 0 -6
-5 -4 -10 4 -6 10 -10 11 -10 3 0 -7 -9 -13 -21 -13 -11 0 -17 -5 -14 -10 8
-13 -18 -8 -27 5 -5 6 -8 5 -8 -2 0 -8 -14 -13 -35 -13 -21 0 -35 -5 -35 -12
0 -9 -4 -8 -10 2 -6 10 -10 11 -10 3 0 -7 -9 -13 -21 -13 -13 0 -18 -4 -13
-12 5 -9 2 -9 -9 1 -12 9 -17 10 -17 2 0 -7 -4 -9 -10 -6 -5 3 -10 1 -10 -6 0
-7 -3 -9 -7 -6 -3 4 -13 1 -21 -6 -13 -10 -15 -9 -8 3 7 13 6 13 -6 0 -7 -8
-23 -14 -35 -12 -13 2 -23 -1 -23 -7 0 -5 -9 -8 -20 -6 -11 2 -20 -1 -20 -6 0
-6 -4 -8 -9 -4 -5 3 -12 1 -16 -5 -4 -6 -11 -8 -16 -5 -5 4 -12 -1 -15 -9 -3
-9 -10 -16 -16 -16 -5 0 -6 6 -2 13 6 10 4 10 -7 0 -7 -7 -23 -13 -35 -13 -12
0 -25 -6 -27 -12 -4 -10 -8 -9 -16 2 -8 12 -11 12 -11 1 0 -7 -6 -11 -15 -7
-8 3 -15 1 -15 -3 0 -5 -7 -12 -16 -15 -8 -3 -13 -2 -10 2 3 5 -1 9 -9 9 -8 0
-12 -4 -9 -9 5 -8 -11 -12 -30 -9 -5 1 -6 -5 -2 -14 3 -10 2 -14 -5 -10 -6 4
-20 -1 -32 -12 -19 -16 -20 -16 -8 0 12 15 12 17 -2 11 -8 -3 -18 -13 -22 -22
-5 -14 -7 -14 -16 -2 -8 11 -12 12 -16 2 -2 -6 -9 -10 -14 -6 -5 3 -9 1 -9 -4
0 -6 -7 -13 -16 -16 -8 -3 -13 -2 -10 2 3 5 -1 9 -9 9 -8 0 -12 -4 -9 -9 3 -4
0 -8 -6 -8 -6 0 -8 -5 -4 -12 5 -9 2 -9 -9 1 -13 11 -17 11 -17 1 0 -8 -3 -10
-7 -7 -3 4 -12 -1 -19 -11 -8 -10 -13 -12 -14 -4 0 20 -20 14 -30 -10 -5 -13
-9 -18 -9 -12 -1 6 -8 11 -16 11 -8 0 -12 -4 -9 -9 5 -7 -10 -12 -29 -9 -5 1
-6 -2 -4 -6 3 -5 -6 -13 -19 -20 -18 -8 -23 -8 -18 0 3 7 -3 2 -13 -11 -14
-16 -21 -20 -30 -11 -8 8 -13 7 -18 -2 -6 -8 -4 -10 6 -4 11 7 11 5 -1 -9 -8
-11 -16 -14 -18 -7 -2 6 -12 1 -23 -11 -15 -18 -20 -20 -27 -10 -7 10 -11 8
-15 -9 -4 -13 -9 -20 -13 -16 -4 4 -18 0 -31 -8 -17 -12 -23 -12 -23 -3 0 9
-3 9 -9 -2 -6 -8 -8 -17 -6 -20 2 -4 -2 -7 -10 -7 -8 0 -12 5 -9 11 3 6 -4 0
-16 -14 -12 -14 -19 -19 -15 -12 3 6 1 12 -4 12 -6 0 -11 -4 -11 -10 0 -5 -5
-10 -11 -10 -7 0 -20 -10 -30 -22 -11 -12 -19 -16 -19 -8 0 9 -3 10 -13 1 -8
-6 -17 -8 -20 -4 -4 3 -7 -2 -7 -11 0 -13 -5 -16 -16 -12 -12 5 -15 2 -10 -9
3 -10 2 -13 -5 -10 -6 4 -17 -1 -25 -11 -9 -11 -13 -14 -10 -8 3 6 -1 11 -9
11 -8 0 -12 -3 -10 -7 2 -3 0 -12 -6 -20 -5 -8 -9 -10 -9 -4 0 6 -7 11 -15 11
-11 0 -12 -4 -4 -14 11 -12 5 -17 -14 -14 -4 1 -15 -6 -23 -14 -9 -8 -20 -13
-25 -10 -5 4 -9 1 -9 -4 0 -6 -7 -11 -15 -11 -8 0 -15 -5 -15 -12 0 -6 -3 -9
-6 -5 -4 3 -15 -4 -25 -16 -15 -18 -20 -19 -28 -8 -7 11 -10 9 -16 -8 -3 -12
-11 -19 -16 -16 -5 4 -9 -1 -9 -10 0 -9 -4 -13 -10 -10 -5 3 -10 1 -10 -5 0
-6 -4 -8 -10 -5 -9 6 -15 -8 -11 -29 1 -5 -5 -3 -14 4 -13 11 -19 9 -40 -10
-13 -13 -21 -28 -18 -34 4 -6 0 -5 -9 2 -13 10 -20 7 -45 -21 -16 -18 -34 -32
-41 -29 -6 2 -17 -6 -24 -17 -7 -12 -21 -21 -31 -21 -10 0 -15 -4 -12 -10 3
-5 1 -10 -5 -10 -6 0 -8 -4 -5 -10 3 -5 2 -10 -4 -10 -5 0 -12 6 -14 13 -3 6
-6 1 -7 -13 -1 -14 -4 -19 -7 -12 -2 6 -9 12 -14 12 -6 0 -7 -5 -3 -12 5 -8 2
-9 -11 -4 -15 6 -16 4 -4 -10 11 -14 10 -15 -7 -12 -11 2 -18 -2 -16 -9 1 -7
-3 -13 -9 -13 -5 0 -7 -4 -4 -10 5 -9 -15 -15 -37 -11 -4 0 -4 -7 -1 -17 3 -9
2 -14 -2 -10 -5 5 -14 -1 -22 -12 -8 -11 -24 -20 -36 -20 -18 0 -19 -2 -7 -11
12 -9 11 -10 -7 -6 -19 4 -21 2 -13 -13 8 -15 6 -17 -12 -12 -16 4 -19 2 -13
-8 6 -10 4 -12 -8 -7 -9 3 -16 3 -16 -1 3 -20 -3 -23 -18 -11 -15 13 -15 12
-4 -8 10 -19 9 -22 -4 -17 -9 4 -15 0 -15 -10 0 -9 -6 -13 -14 -10 -7 3 -16
-2 -19 -10 -4 -9 -13 -16 -22 -16 -14 0 -20 -12 -16 -33 1 -5 -3 -6 -8 -2 -6
3 -8 13 -5 23 5 14 4 15 -5 2 -6 -8 -11 -24 -11 -35 0 -17 -2 -17 -10 -5 -8
12 -10 11 -10 -7 0 -12 -5 -25 -12 -29 -7 -4 -8 -3 -4 4 4 7 2 12 -4 12 -6 0
-10 -8 -8 -17 1 -10 -2 -19 -7 -20 -6 -1 -9 6 -7 15 2 15 1 15 -7 2 -6 -8 -11
-24 -11 -35 0 -17 -2 -18 -11 -5 -9 12 -10 11 -6 -7 4 -16 1 -20 -11 -16 -12
5 -14 2 -9 -12 6 -14 5 -15 -6 -7 -9 8 -17 8 -27 0 -13 -8 -13 -9 1 -5 9 3 16
-1 16 -8 0 -8 -7 -11 -15 -7 -11 4 -14 1 -9 -11 3 -9 3 -16 -1 -16 -4 1 -16 1
-27 0 -17 -1 -18 -3 -5 -11 12 -8 11 -10 -5 -10 -27 0 -45 -18 -45 -44 0 -18
-2 -19 -11 -6 -9 12 -10 11 -6 -7 4 -19 2 -21 -13 -13 -15 8 -17 6 -13 -13 4
-18 3 -19 -6 -7 -9 13 -11 12 -11 -4 0 -12 -5 -16 -15 -12 -8 3 -14 0 -12 -7
1 -7 -3 -11 -10 -10 -8 2 -10 -4 -6 -14 5 -13 2 -15 -12 -9 -11 4 -16 4 -12 0
4 -5 -3 -14 -15 -22 -13 -7 -15 -11 -5 -8 9 3 25 9 35 12 9 3 7 -1 -6 -8 -12
-8 -19 -17 -15 -22 4 -4 -1 -4 -12 0 -14 6 -17 4 -12 -9 3 -9 3 -16 -1 -16 -4
1 -16 1 -27 0 -17 -1 -18 -3 -5 -11 13 -8 13 -10 -2 -10 -9 0 -20 -5 -24 -12
-5 -7 -2 -9 7 -4 8 4 3 -2 -11 -14 -14 -12 -20 -19 -13 -16 6 4 15 1 19 -5 4
-8 3 -9 -4 -5 -7 4 -12 3 -12 -3 0 -6 -7 -8 -17 -4 -13 5 -15 2 -11 -14 5 -17
1 -21 -17 -18 -17 1 -22 -2 -17 -13 4 -11 1 -13 -7 -7 -10 6 -11 3 -2 -14 9
-16 9 -20 -2 -15 -13 5 -31 -27 -28 -49 1 -4 -9 -2 -21 4 -20 11 -21 10 -11
-2 10 -12 8 -17 -8 -27 -15 -10 -18 -16 -10 -26 9 -10 6 -13 -15 -10 -14 1
-23 0 -20 -3 3 -4 0 -13 -6 -22 -8 -10 -3 -8 12 4 l25 20 -19 -23 c-11 -13
-26 -20 -34 -17 -13 5 -13 3 -1 -12 12 -15 12 -16 -4 -10 -15 6 -16 4 -7 -13
7 -12 7 -21 0 -25 -10 -6 -14 1 -11 18 1 5 -3 6 -9 2 -5 -3 -10 -14 -10 -23 0
-9 -5 -24 -11 -32 -8 -12 -9 -9 -4 10 l6 25 -15 -25 c-9 -14 -16 -34 -16 -45
0 -17 -2 -18 -11 -5 -9 12 -10 11 -6 -8 3 -12 1 -20 -4 -16 -5 3 -9 0 -9 -6 0
-6 -5 -8 -12 -4 -9 5 -8 2 1 -9 12 -15 12 -17 -3 -11 -11 4 -16 1 -16 -11 0
-12 -5 -15 -17 -11 -15 5 -15 4 1 -9 19 -15 19 -15 -1 -15 -17 0 -21 -5 -18
-25 2 -20 -1 -23 -11 -15 -9 9 -12 5 -9 -15 2 -20 -3 -29 -20 -35 -12 -5 -25
-18 -28 -30 -4 -15 -10 -19 -19 -14 -10 6 -9 3 1 -10 13 -15 12 -18 -8 -23
-15 -4 -19 -9 -11 -18 7 -8 3 -18 -14 -33 -13 -11 -26 -20 -28 -19 -2 1 0 -2
4 -7 12 -15 10 -26 -4 -23 -8 1 -13 -7 -12 -20 0 -12 -3 -20 -8 -17 -4 3 -8 0
-8 -6 0 -6 -4 -9 -9 -5 -5 3 -13 0 -17 -6 -4 -7 -3 -9 4 -5 6 4 10 -1 9 -13 0
-10 -6 -17 -13 -14 -7 2 -15 -1 -20 -8 -4 -8 -3 -10 5 -5 8 5 8 1 -1 -19 -6
-14 -17 -24 -24 -21 -9 3 -11 -1 -7 -11 4 -11 2 -14 -5 -9 -7 4 -10 -1 -7 -13
3 -15 0 -18 -13 -14 -9 3 -14 3 -10 -2 4 -4 3 -14 -3 -21 -7 -8 -6 -14 2 -20
8 -5 9 -3 4 6 -5 9 -4 11 4 6 6 -4 9 -12 5 -17 -3 -5 -10 -7 -15 -4 -5 4 -9 1
-9 -4 0 -6 -8 -11 -17 -12 -16 0 -16 -1 1 -8 18 -7 18 -8 2 -14 -12 -5 -17
-14 -13 -27 3 -11 0 -18 -7 -17 -6 1 -11 -7 -11 -18 -1 -11 -7 -19 -14 -17 -7
1 -10 -2 -6 -8 3 -5 2 -10 -4 -10 -6 0 -8 -6 -5 -14 3 -8 -4 -19 -16 -26 -13
-7 -19 -17 -16 -26 3 -8 -1 -17 -9 -20 -8 -4 -15 -10 -15 -16 0 -5 6 -6 13 -3
6 4 5 1 -4 -7 -9 -7 -14 -19 -11 -27 3 -10 0 -12 -12 -8 -14 5 -15 3 -6 -13
13 -24 13 -33 0 -25 -11 7 -31 -35 -23 -47 2 -5 -1 -8 -8 -8 -7 0 -9 -8 -6
-21 4 -14 -1 -23 -16 -29 -21 -8 -21 -9 -2 -10 19 -1 19 -2 2 -9 -10 -4 -19
-11 -20 -16 -1 -6 -5 -9 -9 -8 -5 2 -8 -4 -8 -13 0 -8 5 -12 11 -8 6 3 4 -5
-5 -18 -9 -14 -13 -28 -9 -31 3 -4 1 -7 -6 -7 -7 0 -9 -4 -6 -10 3 -5 1 -10
-6 -10 -6 0 -9 -8 -6 -20 3 -11 0 -18 -7 -17 -6 1 -11 -7 -11 -18 -1 -11 -7
-19 -13 -17 -10 2 -10 -3 -1 -19 9 -17 8 -20 -2 -14 -9 6 -11 3 -6 -8 4 -12 1
-17 -11 -17 -13 0 -14 -2 -3 -9 10 -6 10 -10 1 -16 -6 -4 -9 -13 -6 -21 3 -7
0 -16 -6 -20 -7 -5 -8 -2 -3 6 5 9 4 11 -4 6 -9 -6 -9 -11 0 -22 9 -11 9 -14
-1 -14 -8 0 -10 -8 -7 -21 5 -17 3 -18 -11 -7 -14 11 -14 11 -5 -7 9 -15 8
-22 -5 -33 -12 -9 -12 -11 -2 -6 13 7 13 5 1 -9 -7 -9 -10 -17 -7 -17 4 0 0
-7 -9 -16 -13 -14 -14 -19 -3 -25 11 -7 11 -9 -1 -9 -9 0 -12 -8 -9 -25 4 -20
2 -23 -8 -15 -10 9 -11 6 -7 -9 3 -13 1 -21 -8 -21 -10 0 -10 -3 -1 -12 9 -9
8 -16 -5 -30 -13 -14 -13 -18 -2 -18 12 -1 11 -3 -1 -13 -8 -7 -16 -25 -18
-42 -2 -16 -8 -32 -13 -33 -5 -2 -7 -8 -3 -13 3 -5 0 -9 -7 -9 -9 0 -9 -3 0
-14 9 -10 8 -15 -3 -19 -11 -4 -12 -14 -6 -41 6 -26 4 -39 -6 -47 -8 -6 -14
-18 -14 -25 0 -8 -8 -14 -17 -15 -15 0 -15 -2 2 -9 19 -7 19 -8 2 -15 -13 -5
-15 -11 -7 -20 7 -8 7 -15 1 -19 -5 -3 -7 -16 -3 -28 3 -14 1 -19 -6 -14 -8 5
-10 2 -6 -8 4 -10 1 -16 -7 -16 -9 0 -10 -3 -3 -10 12 -12 5 -82 -7 -74 -12 7
-11 -3 2 -28 7 -13 7 -18 1 -14 -6 3 -13 2 -16 -3 -4 -5 -2 -12 4 -16 6 -4 2
-18 -12 -38 -12 -17 -17 -27 -10 -23 15 9 15 1 2 -25 -6 -10 -7 -19 -2 -19 5
0 7 -11 4 -25 -2 -14 -7 -23 -11 -21 -3 2 -6 -10 -5 -27 0 -18 -4 -37 -8 -44
-5 -6 -4 -14 2 -18 7 -4 7 -11 2 -18 -14 -19 -23 -49 -12 -42 6 3 10 1 10 -4
0 -6 -4 -11 -9 -11 -12 0 -21 -39 -11 -45 5 -3 5 -19 0 -35 -6 -20 -5 -30 2
-30 7 0 7 -4 -1 -13 -6 -8 -8 -17 -4 -20 3 -4 2 -7 -3 -7 -6 0 -9 -12 -9 -27
1 -16 -3 -34 -8 -40 -6 -9 -5 -13 4 -13 9 0 10 -3 2 -11 -6 -6 -7 -25 -3 -49
4 -24 3 -43 -3 -49 -8 -8 -7 -11 3 -11 10 0 11 -3 3 -11 -6 -6 -7 -25 -3 -49
4 -24 3 -43 -3 -49 -8 -8 -7 -11 3 -11 10 0 11 -3 3 -11 -6 -6 -7 -25 -3 -49
4 -24 3 -43 -3 -49 -8 -8 -7 -11 3 -11 10 0 11 -3 3 -11 -6 -6 -7 -25 -3 -49
4 -24 3 -43 -3 -49 -8 -8 -7 -11 3 -11 10 0 11 -3 3 -11 -6 -6 -7 -25 -3 -49
4 -24 3 -43 -3 -49 -8 -8 -7 -11 3 -11 10 0 11 -3 3 -11 -6 -6 -7 -25 -3 -49
4 -24 3 -43 -3 -49 -8 -8 -7 -11 3 -11 10 0 11 -3 3 -11 -6 -6 -7 -25 -3 -49
4 -24 3 -43 -3 -49 -8 -8 -7 -11 3 -11 10 0 11 -3 4 -10 -11 -11 -6 -73 5 -65
4 2 8 -2 8 -10 0 -8 -4 -12 -9 -9 -7 5 -1 -20 11 -41 8 -14 9 -45 1 -45 -8 0
-6 -37 3 -46 3 -4 2 -15 -4 -25 -7 -14 -6 -19 2 -19 8 0 8 -4 -1 -15 -10 -12
-9 -16 5 -21 11 -5 13 -9 6 -14 -8 -5 -7 -15 3 -35 10 -19 12 -35 5 -51 -5
-14 -5 -24 0 -24 5 0 8 -14 7 -31 -1 -18 3 -33 11 -36 9 -4 10 -10 3 -23 -7
-13 -7 -21 1 -26 8 -4 7 -9 -2 -15 -10 -6 -11 -9 -1 -9 6 0 12 -9 12 -20 0
-11 5 -20 12 -20 9 0 9 -3 1 -11 -13 -13 0 -78 18 -89 6 -5 9 -15 6 -24 -4 -9
-2 -16 4 -16 5 0 9 -6 8 -12 -1 -7 -1 -40 0 -73 1 -42 4 -55 11 -45 7 11 8 7
6 -14 -2 -16 2 -40 9 -53 7 -13 12 -33 11 -46 -1 -12 3 -25 9 -29 6 -5 5 -11
-5 -18 -13 -9 -13 -10 0 -11 8 -1 19 -1 24 0 5 1 4 -4 -2 -12 -7 -8 -9 -17 -5
-21 4 -3 8 -17 10 -29 2 -12 8 -35 14 -50 7 -15 9 -31 5 -34 -3 -4 4 -18 16
-31 13 -14 18 -22 12 -19 -6 3 -11 0 -11 -8 0 -8 4 -12 8 -10 4 3 9 -2 13 -10
3 -8 1 -17 -5 -21 -6 -3 -3 -12 8 -21 10 -8 12 -12 6 -8 -9 4 -11 1 -7 -9 3
-9 9 -14 13 -12 4 3 7 -3 7 -12 3 -47 22 -112 35 -112 5 0 9 -9 9 -21 0 -11 4
-17 10 -14 6 3 7 -1 4 -10 -4 -8 0 -23 7 -32 10 -12 10 -15 2 -9 -7 4 -13 3
-13 -1 0 -5 8 -13 19 -20 11 -7 17 -22 16 -40 -1 -15 6 -34 14 -41 9 -8 10
-11 4 -7 -18 9 -16 2 7 -25 12 -13 18 -30 15 -37 -2 -8 0 -11 5 -8 8 5 13 -15
9 -41 0 -4 4 -10 9 -13 5 -3 17 -22 27 -41 14 -26 15 -33 4 -25 -8 6 -6 2 5
-8 10 -10 20 -30 21 -45 1 -15 7 -26 14 -24 7 1 10 -2 6 -8 -3 -5 -1 -10 6
-10 8 0 8 -4 -1 -16 -11 -12 -11 -15 1 -12 8 2 14 -5 14 -17 1 -11 6 -19 11
-18 6 1 11 -4 11 -12 0 -8 -4 -12 -9 -9 -4 3 -5 -2 -2 -10 3 -9 10 -13 15 -10
5 3 9 0 9 -6 0 -6 5 -8 13 -4 8 5 8 2 -2 -9 -11 -15 -11 -17 2 -17 10 0 13 -6
10 -20 -4 -13 0 -20 9 -20 11 0 14 -8 10 -26 -3 -17 -1 -25 6 -21 5 4 12 0 15
-7 3 -8 1 -17 -6 -20 -7 -2 -4 -5 6 -5 9 -1 17 -6 17 -12 0 -5 6 -7 13 -3 9 5
9 4 -1 -7 -10 -11 -8 -16 10 -26 13 -7 17 -12 10 -13 -7 0 -11 -4 -7 -10 3 -5
13 -7 23 -4 12 4 13 3 4 -3 -18 -13 -4 -43 16 -36 13 4 14 2 4 -4 -10 -8 -11
-15 -1 -36 7 -15 16 -27 21 -27 4 0 8 -7 8 -16 0 -8 4 -13 9 -10 5 3 12 -1 15
-10 3 -8 2 -12 -4 -9 -6 3 -10 1 -10 -4 0 -10 13 -15 31 -13 3 1 6 -5 6 -13 0
-8 -4 -12 -9 -9 -5 4 -4 -3 3 -14 10 -16 16 -18 26 -10 9 7 13 7 13 0 0 -6 -5
-14 -11 -18 -8 -4 -7 -9 2 -15 8 -4 14 -12 15 -16 0 -4 9 -24 19 -45 13 -27
23 -35 38 -32 15 2 18 1 10 -7 -14 -14 -6 -39 11 -39 17 0 37 -45 30 -67 -5
-14 -4 -15 4 -4 12 17 30 6 42 -25 7 -17 15 -22 27 -18 13 4 14 3 5 -3 -14
-10 -6 -46 8 -38 5 3 12 0 16 -6 4 -8 3 -9 -4 -5 -7 4 -12 1 -12 -6 1 -15 30
-57 30 -42 0 6 -5 15 -12 22 -9 9 -9 12 0 12 6 0 15 -12 18 -27 4 -16 16 -34
26 -41 10 -7 18 -18 18 -24 0 -7 -7 -3 -16 8 -8 10 -12 12 -8 4 11 -23 46 -60
57 -60 5 0 -1 9 -14 20 -13 10 -21 19 -16 20 14 0 66 -53 60 -63 -3 -5 0 -13
6 -17 7 -4 13 -16 14 -28 0 -12 3 -19 6 -17 2 3 10 -4 18 -15 8 -11 19 -20 25
-20 7 0 6 5 -3 13 -8 6 -21 21 -29 32 -8 11 4 2 27 -19 22 -22 39 -45 36 -53
-3 -7 0 -13 7 -13 6 0 9 -4 6 -9 -3 -5 3 -11 13 -14 11 -2 24 -15 30 -28 l12
-24 -17 23 c-9 12 -21 22 -27 22 -5 0 4 -14 22 -30 17 -17 31 -37 31 -45 0 -8
5 -15 11 -15 5 0 7 6 3 13 -5 8 -2 8 9 -2 9 -7 17 -20 17 -28 0 -8 5 -11 12
-7 7 5 9 2 5 -8 -6 -17 15 -40 47 -52 10 -3 16 -12 13 -20 -4 -9 2 -12 19 -10
20 2 23 -1 14 -10 -7 -10 -6 -17 7 -27 17 -13 17 -13 3 6 -14 19 -14 19 3 6 9
-7 17 -21 18 -30 0 -12 2 -11 9 4 8 18 9 17 9 -7 1 -16 6 -28 12 -28 5 0 7 5
3 12 -4 7 -3 8 4 4 6 -4 8 -14 5 -23 -5 -13 -2 -15 12 -10 16 7 16 5 4 -10 -8
-10 -9 -14 -2 -10 7 5 17 -1 23 -13 6 -12 23 -25 37 -31 17 -6 23 -14 19 -25
-3 -9 -2 -12 4 -9 6 3 13 -1 16 -9 3 -9 10 -13 15 -10 5 3 9 0 9 -6 0 -6 5 -8
12 -4 7 5 9 2 5 -8 -7 -21 3 -31 19 -18 9 8 12 6 10 -7 0 -11 5 -18 16 -17 14
1 16 -2 7 -17 -5 -11 -6 -18 -2 -17 4 1 18 -1 30 -5 15 -6 20 -14 18 -28 -3
-17 -1 -19 10 -9 11 9 14 6 17 -12 2 -16 9 -22 22 -20 12 2 16 -1 10 -9 -5 -9
-2 -10 9 -6 11 4 14 2 10 -9 -3 -8 1 -14 11 -14 9 0 16 -4 16 -10 0 -5 5 -10
11 -10 5 0 7 6 3 13 -4 6 5 1 19 -12 15 -14 27 -29 27 -34 0 -5 -9 1 -20 14
-10 13 -19 21 -20 17 0 -14 33 -47 42 -42 11 7 38 -14 38 -29 0 -6 -6 -3 -13
8 -11 14 -16 15 -22 5 -5 -8 -4 -11 2 -7 6 4 13 0 17 -8 3 -8 12 -12 21 -9 14
6 20 -6 16 -30 -1 -5 5 -4 13 4 11 8 16 9 16 1 0 -6 6 -10 13 -9 6 2 11 -3 9
-9 -1 -7 6 -13 15 -13 15 0 16 -2 3 -10 -13 -8 -12 -10 3 -10 10 0 15 -4 12
-10 -6 -9 10 -14 42 -13 7 1 10 -3 7 -8 -5 -8 9 -13 28 -10 4 0 4 -7 1 -16 -5
-13 -2 -15 11 -10 10 4 15 3 11 -3 -3 -6 -1 -10 5 -10 6 0 8 -5 4 -12 -5 -8 0
-7 11 2 11 9 16 10 11 3 -5 -9 0 -13 14 -13 14 0 19 -4 14 -12 -5 -7 -2 -9 8
-6 8 4 21 2 29 -4 11 -8 11 -9 -2 -5 -9 3 -16 -1 -16 -8 0 -8 10 -12 24 -10
19 2 21 0 12 -12 -7 -7 -9 -16 -5 -20 3 -3 6 -2 6 4 0 5 7 10 14 10 8 0 15 -3
14 -6 -2 -18 3 -31 13 -31 5 0 7 5 4 10 -3 6 -2 10 4 10 5 0 13 -9 16 -20 6
-18 19 -24 52 -23 7 0 12 -2 11 -6 -2 -20 4 -31 17 -31 8 0 15 -5 15 -11 0 -6
9 -9 20 -6 11 3 18 0 17 -7 -1 -6 4 -10 12 -8 11 2 12 0 3 -10 -8 -11 -7 -14
9 -16 43 -4 47 -6 41 -20 -3 -10 -1 -13 6 -8 7 4 12 2 12 -6 0 -9 3 -9 10 2 6
10 10 11 10 3 0 -7 7 -13 15 -13 8 0 15 -6 15 -12 0 -9 4 -8 10 2 9 13 10 13
11 0 1 -8 1 -18 0 -22 0 -5 6 -8 15 -8 9 0 12 5 8 12 -4 7 -3 8 4 4 6 -4 9
-13 6 -21 -4 -10 0 -13 15 -10 14 2 21 -1 21 -11 0 -8 9 -14 19 -14 11 0 21
-4 23 -9 2 -5 10 -11 18 -13 8 -2 22 -12 32 -23 13 -15 17 -17 18 -5 0 12 2
12 9 2 4 -7 17 -15 27 -16 10 -2 18 -8 17 -14 -1 -6 4 -13 13 -16 8 -3 12 -2
9 4 -3 6 -1 10 4 10 6 0 11 -5 11 -10 0 -6 12 -15 26 -20 16 -7 23 -14 18 -22
-5 -8 0 -7 11 2 11 9 16 10 11 3 -4 -8 -1 -13 8 -13 9 0 16 -6 16 -12 0 -9 4
-8 11 2 8 11 12 12 16 3 2 -7 13 -13 24 -13 10 0 19 -7 19 -15 0 -8 4 -15 10
-15 5 0 7 8 4 18 -5 16 -5 16 6 -1 6 -9 16 -14 22 -11 7 4 8 2 4 -4 -4 -7 -2
-12 4 -12 6 0 9 -4 6 -8 -3 -5 1 -9 9 -9 8 0 15 4 15 9 0 5 5 6 10 3 6 -4 8
-10 5 -15 -3 -5 0 -12 6 -16 6 -3 15 -1 19 6 5 8 9 4 13 -11 5 -20 8 -21 23
-8 12 9 15 10 10 2 -4 -8 -1 -13 8 -13 9 0 16 -5 16 -11 0 -8 4 -8 14 0 10 8
15 9 18 1 2 -6 13 -12 25 -13 12 0 20 -3 18 -5 -5 -5 21 -32 30 -32 3 0 3 6 0
13 -4 6 1 3 9 -7 10 -13 16 -15 16 -7 0 10 3 11 13 2 8 -6 18 -7 22 -3 5 4 5
1 1 -5 -6 -12 5 -18 27 -14 4 0 7 -3 7 -9 0 -5 5 -10 11 -10 5 0 7 6 4 13 -4
6 0 4 8 -5 8 -10 17 -15 20 -11 4 3 7 0 7 -8 0 -11 2 -11 10 1 7 11 10 11 10
2 0 -7 5 -10 10 -7 6 3 13 -1 16 -9 5 -12 10 -13 25 -5 15 7 21 6 25 -6 3 -8
10 -12 15 -9 5 3 9 0 9 -5 0 -6 5 -11 11 -11 5 0 7 6 4 12 -4 7 2 2 13 -12 12
-14 24 -21 28 -17 4 4 1 7 -6 7 -7 0 -11 2 -8 5 2 3 19 -2 36 -11 18 -8 37
-12 43 -8 7 4 10 3 6 -2 -3 -5 6 -14 19 -21 13 -6 22 -7 18 -2 -3 5 0 9 5 9 6
0 11 -4 11 -10 0 -5 9 -10 20 -10 11 0 20 -6 20 -12 0 -9 4 -8 10 2 6 10 10
11 10 3 0 -7 9 -13 20 -13 11 0 20 -4 20 -10 0 -5 5 -10 11 -10 5 0 7 6 3 13
-6 9 -5 9 7 0 8 -7 34 -13 57 -14 23 -2 42 -7 42 -11 0 -4 9 -8 20 -8 11 0 20
-5 20 -11 0 -8 6 -7 17 2 11 10 14 10 9 1 -5 -9 4 -12 33 -12 23 0 41 -4 41
-10 0 -5 5 -10 11 -10 5 0 7 6 3 13 -6 9 -4 10 7 0 7 -7 23 -13 36 -13 13 0
23 -6 23 -12 0 -9 4 -8 10 2 6 10 10 11 10 3 0 -7 11 -13 24 -13 14 0 28 -4
31 -10 3 -5 12 -10 18 -10 7 0 6 4 -3 10 -9 6 -10 10 -3 10 6 0 15 -4 18 -10
3 -5 17 -10 30 -10 13 0 26 -6 28 -12 4 -10 8 -9 16 2 7 10 11 11 11 3 0 -9
18 -13 58 -13 33 0 64 -5 71 -12 11 -10 13 -10 7 -1 -4 7 -2 13 3 13 6 0 11
-4 11 -10 0 -5 14 -10 30 -10 17 0 30 -5 30 -12 0 -9 4 -8 10 2 6 10 10 11 10
3 0 -9 21 -13 73 -13 45 0 78 -5 86 -13 11 -9 13 -9 7 1 -4 6 -2 12 3 12 6 0
11 -4 11 -10 0 -6 43 -10 110 -10 67 0 110 -4 110 -10 0 -5 5 -10 11 -10 5 0
7 6 3 13 -6 9 -4 9 7 0 10 -10 106 -13 409 -13 303 0 399 3 409 13 8 6 11 7 8
1 -3 -6 0 -11 8 -11 8 0 12 4 9 9 -3 4 23 8 58 8 37 0 70 5 77 13 11 10 13 10
7 0 -4 -7 -2 -13 3 -13 6 0 11 5 11 10 0 6 32 10 75 10 53 0 75 4 75 13 0 8 4
7 11 -3 8 -11 12 -12 16 -2 3 8 27 12 69 12 43 0 64 4 64 12 0 6 7 3 15 -8 10
-13 13 -14 10 -3 -6 15 2 18 47 20 10 0 21 5 24 11 4 6 10 5 15 -3 6 -10 9
-11 9 -1 0 6 9 12 20 12 11 0 20 6 20 13 0 8 4 7 10 -3 9 -13 10 -13 10 0 0
13 1 13 10 0 6 -10 10 -11 10 -2 0 7 15 12 40 12 25 0 40 5 40 13 0 8 4 7 11
-3 8 -11 12 -12 16 -2 2 6 16 12 29 12 13 0 24 5 24 12 0 6 7 3 16 -8 8 -10
13 -13 9 -7 -3 7 -1 13 5 13 6 0 9 4 6 9 -3 4 5 6 18 4 13 -3 27 0 30 6 4 6
13 11 19 11 7 0 6 -4 -3 -11 -13 -9 -13 -10 0 -5 8 3 23 9 33 12 9 4 17 10 17
15 0 5 5 9 11 9 5 0 7 -6 3 -12 -6 -10 -4 -10 7 0 7 6 23 12 36 12 13 0 23 4
23 9 0 6 9 8 20 6 11 -2 20 0 20 5 0 4 10 6 22 2 16 -4 19 -2 13 9 -7 11 -6
12 6 2 11 -9 20 -8 39 7 14 11 30 20 35 20 6 0 3 -5 -5 -11 -13 -9 -13 -10 0
-5 8 3 23 9 33 12 9 4 17 11 17 18 0 6 5 4 10 -4 6 -10 10 -11 10 -2 0 6 9 12
21 12 11 0 18 4 15 9 -3 4 10 7 29 6 18 -1 34 1 33 4 -2 19 4 22 20 10 9 -7
14 -9 10 -5 -10 11 21 35 45 36 9 0 17 6 17 13 0 8 4 7 10 -3 9 -13 11 -13 20
0 5 8 10 11 10 5 0 -5 5 -2 11 8 8 13 14 15 29 7 17 -9 19 -8 13 7 -3 10 -3
15 2 11 4 -4 15 -2 23 5 13 10 15 9 8 -3 -6 -13 -6 -13 6 0 7 9 23 15 35 14
14 -1 25 6 29 19 4 13 9 16 13 8 11 -17 59 10 54 29 -3 10 0 9 7 -3 6 -9 16
-15 21 -12 5 4 6 11 3 17 -4 6 -2 8 4 4 5 -3 13 0 15 6 4 10 6 10 6 -1 1 -8 9
-5 22 10 13 16 22 20 25 12 4 -10 8 -10 19 0 7 7 11 15 8 20 -2 4 0 7 6 7 5 0
12 -6 14 -12 3 -7 6 -2 6 12 1 20 3 22 11 10 8 -13 11 -13 22 -1 11 12 10 13
-2 6 -9 -5 -12 -4 -7 1 5 5 12 9 15 9 4 0 13 4 21 9 11 7 12 6 6 -5 -8 -12 -6
-12 8 0 9 7 15 17 12 20 -2 4 2 8 10 8 8 0 12 -4 9 -9 -3 -4 2 -5 10 -2 9 3
14 10 11 14 -3 5 -1 11 5 15 5 3 10 0 10 -7 0 -9 2 -10 8 -2 10 16 85 57 76
42 -6 -9 -3 -9 9 1 9 7 15 17 12 20 -2 4 2 8 10 8 8 0 11 -5 8 -11 -4 -6 3 -3
14 7 11 9 23 14 28 10 4 -5 5 -2 0 6 -6 11 -3 13 13 9 14 -4 19 -2 15 8 -3 9
2 12 16 9 14 -3 19 0 15 7 -5 7 -1 9 9 5 13 -5 17 -1 17 14 0 11 5 17 10 14 6
-3 17 1 26 10 12 11 20 13 29 5 10 -8 13 -7 11 6 0 9 6 19 14 21 13 4 13 3 0
-6 -8 -6 -11 -11 -5 -11 5 0 18 10 30 23 11 13 16 17 11 10 -6 -10 -4 -12 8
-7 9 3 16 10 16 16 0 5 5 6 10 3 6 -4 9 -3 8 2 -2 4 5 18 14 31 11 16 17 19
20 10 4 -9 12 -6 27 12 13 14 20 19 16 13 -3 -7 -2 -13 3 -13 15 0 22 13 12
24 -6 8 -3 12 11 14 47 4 49 5 39 17 -8 9 -4 12 14 10 17 -2 23 1 20 10 -4 9
1 12 13 10 20 -3 55 23 47 36 -2 4 5 6 17 4 16 -3 18 -1 10 9 -9 10 -6 13 13
11 17 -2 23 1 20 10 -4 9 1 12 13 10 10 -1 28 7 41 18 23 21 31 44 10 31 -7
-4 -8 -3 -4 4 9 15 38 3 30 -12 -4 -6 6 2 22 17 25 23 27 29 14 38 -11 7 -8 8
11 4 22 -5 27 -2 32 16 4 13 9 20 13 16 4 -4 12 3 18 16 7 12 20 22 31 22 11
0 24 10 30 22 10 20 12 20 23 5 6 -9 11 -12 11 -7 -4 32 2 47 16 41 8 -3 16
-1 16 4 1 6 2 16 3 23 1 6 8 11 15 9 7 -1 19 5 26 14 7 11 19 15 29 11 14 -6
15 -4 5 16 -11 20 -11 21 5 8 14 -12 16 -12 11 2 -4 8 -1 18 6 23 8 4 10 3 5
-4 -5 -8 -2 -10 9 -6 12 5 13 9 4 20 -7 8 -9 17 -5 21 3 3 6 1 6 -5 0 -7 7
-12 16 -12 8 0 12 4 9 10 -3 6 -1 10 5 10 6 0 8 5 4 13 -5 8 -2 7 9 -2 10 -8
20 -11 24 -7 3 3 1 6 -5 6 -6 0 -10 9 -9 19 1 16 5 18 20 9 17 -9 17 -8 6 14
-11 21 -11 22 4 9 14 -11 18 -11 23 3 3 9 11 13 16 10 6 -4 5 3 -1 15 -10 17
-9 20 4 15 9 -4 15 -1 15 7 0 11 3 11 10 -1 8 -13 10 -13 10 2 0 9 5 20 12 24
7 4 8 3 4 -4 -4 -7 -2 -12 3 -12 6 0 11 7 11 16 0 9 6 14 13 11 8 -3 14 1 14
8 0 8 -7 11 -16 7 -21 -7 -12 2 16 17 20 10 22 9 17 -6 -5 -15 -4 -15 4 -3 8
10 7 19 -1 29 -9 12 -9 13 0 8 17 -10 52 13 46 30 -3 8 0 11 9 8 8 -3 21 2 29
12 13 16 12 17 -3 5 -11 -9 -18 -10 -23 -2 -4 6 -3 10 2 9 11 -3 63 19 63 26
0 4 -4 4 -8 1 -5 -3 -9 1 -9 9 0 11 5 12 21 3 20 -10 20 -10 6 7 -14 17 -13
18 5 13 16 -4 21 0 22 15 1 10 11 26 22 34 22 15 30 40 9 27 -7 -4 -8 -3 -4 4
4 7 14 12 22 12 8 0 14 7 14 15 0 9 6 12 17 8 11 -4 14 -3 9 5 -4 7 -1 12 8
12 10 0 13 6 10 15 -5 11 -2 13 12 8 12 -4 15 -3 10 5 -7 11 6 17 27 13 5 -1
6 3 2 9 -3 6 -12 7 -18 3 -7 -4 -6 0 2 10 7 9 18 14 24 10 6 -3 7 -1 3 5 -4 7
-2 12 3 12 6 0 11 5 11 11 0 5 -5 7 -12 3 -7 -4 -8 -3 -4 4 4 6 13 9 21 5 11
-4 13 -1 9 11 -4 10 -1 16 10 16 13 0 33 23 34 40 1 3 4 13 8 23 4 13 10 15
19 7 9 -8 12 -4 10 15 -2 13 0 24 3 23 14 -2 42 14 37 22 -3 4 2 11 11 14 13
5 14 9 3 22 -7 8 -8 14 -3 13 22 -4 35 2 28 13 -5 7 -2 10 7 6 8 -2 22 4 32
14 19 20 8 25 -12 6 -10 -11 -11 -10 -6 4 4 9 15 18 26 21 10 3 19 10 19 17 0
6 -6 8 -12 5 -7 -4 2 7 21 23 20 17 31 34 27 40 -5 8 1 12 16 12 16 0 19 3 10
9 -11 7 -11 9 1 14 7 3 22 21 31 41 10 21 22 34 28 30 7 -4 8 -2 4 4 -4 7 -3
12 3 12 6 0 8 7 5 15 -4 9 0 15 10 15 9 0 15 6 14 13 -2 6 5 11 15 11 17 -2
17 -1 1 17 -16 18 -16 19 0 19 11 0 14 5 10 12 -5 8 -2 9 11 4 16 -6 16 -4 4
11 -12 15 -12 16 2 11 11 -5 16 -1 15 10 0 9 5 16 12 14 10 -2 10 2 2 19 -11
19 -10 20 12 8 21 -11 22 -11 9 4 -9 11 -10 17 -2 17 6 0 11 7 11 15 0 8 8 15
17 15 13 0 14 3 5 12 -15 15 -15 28 -1 28 5 0 7 -4 4 -10 -3 -5 -1 -10 4 -10
6 0 11 5 11 11 0 5 5 7 11 3 8 -4 8 -1 0 14 -9 18 -8 23 9 32 11 6 17 16 14
25 -4 9 3 18 17 24 13 5 18 10 12 10 -7 1 -13 6 -13 12 0 5 5 7 10 4 6 -3 10
1 10 9 0 26 2 31 21 44 11 7 19 19 19 25 0 7 -4 6 -10 -3 -5 -8 -10 -10 -10
-4 0 16 27 37 39 30 10 -7 7 26 -4 44 -4 6 1 7 11 3 13 -5 16 -3 11 10 -4 12
-1 17 11 17 15 0 15 2 2 10 -13 9 -13 12 2 20 9 6 15 16 12 24 -3 7 3 19 13
27 17 13 17 13 3 -6 -14 -18 -14 -19 2 -7 10 8 14 20 11 29 -5 12 -3 14 8 8
11 -7 11 -5 -1 10 -9 11 -10 16 -2 11 7 -4 12 -2 12 4 0 6 5 8 10 5 14 -9 12
8 -2 24 -10 10 -10 12 -1 7 8 -4 15 5 21 26 5 18 14 32 19 31 6 -1 8 9 5 22
-3 19 0 25 13 25 14 0 15 3 5 15 -10 12 -10 15 0 15 7 0 10 7 6 16 -6 15 -4
15 10 3 16 -13 16 -12 5 9 -11 21 -10 24 8 29 12 3 17 11 14 19 -3 8 0 14 6
14 6 0 8 7 5 15 -4 8 -1 15 6 15 6 0 8 5 5 10 -4 6 -1 18 7 27 11 14 11 16 -2
9 -12 -6 -11 -4 1 6 9 7 14 18 12 25 -2 6 6 17 17 23 15 8 19 15 12 22 -12 12
-5 36 20 62 14 16 15 22 5 35 -9 12 -9 13 1 7 7 -4 12 -2 12 8 0 8 8 20 18 25
14 8 14 11 2 12 -8 1 -19 1 -25 0 -5 -1 0 7 12 18 12 10 19 21 16 25 -4 3 0 6
8 6 11 0 11 2 -1 10 -10 6 -11 10 -2 10 6 0 12 9 12 21 0 11 4 18 9 15 5 -4 7
4 4 16 -4 19 -3 20 6 8 14 -19 14 -5 1 21 -9 15 -7 21 5 25 10 4 12 10 6 18
-9 11 12 40 22 30 2 -3 3 7 2 21 -2 14 2 25 8 25 7 0 6 5 -3 10 -13 9 -12 12
4 25 11 8 14 15 7 15 -7 0 -9 5 -6 10 4 6 10 8 14 6 4 -3 5 8 3 25 -3 17 0 29
7 29 6 0 11 5 11 11 0 5 -6 7 -12 3 -7 -4 -2 6 12 22 14 15 17 22 7 15 -15
-12 -17 -12 -11 3 3 9 10 16 14 16 4 0 7 19 6 41 0 24 4 43 11 46 6 3 9 11 6
19 -3 8 0 14 7 14 10 0 10 3 0 15 -11 13 -10 18 6 30 15 11 16 15 4 15 -12 1
-12 3 2 13 11 9 14 18 8 27 -5 9 -5 19 2 27 6 7 8 22 5 33 -3 11 -1 20 5 20 6
0 8 7 4 15 -3 8 -1 15 5 15 6 0 6 7 -1 20 -7 14 -7 20 0 20 5 0 10 9 10 19 0
11 4 22 10 26 6 3 6 15 0 29 -5 13 -6 27 -2 31 4 4 7 16 8 28 0 12 5 32 12 44
7 13 8 24 2 28 -5 3 -7 12 -4 20 4 8 11 12 18 8 6 -4 4 2 -4 12 -9 11 -10 16
-3 11 9 -5 13 1 13 18 0 15 0 38 0 52 0 14 7 32 15 41 12 11 13 19 5 28 -8 10
-8 15 0 20 8 5 8 10 0 20 -8 10 -8 15 0 20 8 5 8 11 1 19 -6 7 -8 16 -5 19 9
9 10 156 2 151 -10 -6 2 27 16 45 8 11 8 13 -1 7 -7 -4 -13 -2 -13 3 0 6 4 11
9 11 5 0 8 19 8 43 0 24 3 49 7 55 4 7 2 12 -5 12 -9 0 -10 3 -2 11 6 6 7 25
3 49 -4 24 -3 43 3 49 8 8 7 11 -2 11 -7 0 -9 5 -6 10 5 9 9 192 5 203 -1 1
-3 18 -5 38 -1 20 -8 46 -14 58 -9 16 -9 21 0 21 8 0 9 4 0 13 -8 10 -7 17 1
25 9 9 9 12 0 12 -10 0 -10 5 -2 20 8 15 8 20 -1 20 -9 0 -9 3 0 14 9 10 9 16
1 21 -8 5 -8 10 0 20 8 9 8 15 0 20 -7 4 -7 12 0 25 7 13 7 21 0 25 -7 4 -7
13 0 26 8 14 7 19 -2 19 -9 0 -9 3 -1 11 9 9 8 16 -3 27 -13 12 -13 16 -2 23
11 7 11 9 -1 9 -9 0 -11 8 -7 25 4 14 3 25 -2 25 -5 0 -9 7 -9 15 0 8 4 15 8
15 10 0 -2 44 -15 52 -8 5 -7 8 2 8 6 0 12 5 12 11 0 5 -5 7 -12 3 -7 -5 -9
-2 -5 8 3 9 0 21 -6 27 -8 8 -8 11 0 11 12 0 11 12 -4 50 -6 14 -10 46 -9 72
0 25 -3 44 -7 41 -5 -3 -8 3 -7 13 4 35 0 45 -12 38 -10 -6 -10 -4 0 8 9 12
10 18 2 23 -7 4 -10 16 -7 26 3 11 0 19 -6 19 -7 0 -5 5 3 10 13 8 13 10 -2
10 -12 0 -15 8 -13 35 2 19 -1 38 -7 41 -7 5 -8 2 -3 -6 5 -9 4 -11 -3 -6 -9
5 -9 13 -1 27 7 14 7 24 0 33 -10 12 -22 63 -25 106 0 14 -8 30 -16 37 -13 11
-13 12 0 13 12 0 10 4 -4 15 -11 8 -15 15 -8 15 6 0 9 7 6 15 -4 8 -9 13 -13
11 -4 -3 -7 7 -7 22 1 15 -4 26 -10 25 -6 -1 -11 4 -11 12 0 8 5 11 11 8 6 -4
6 0 -1 8 -7 8 -17 47 -24 87 -7 39 -16 69 -20 66 -5 -3 -9 0 -9 5 0 6 5 11 12
11 6 0 3 7 -8 16 -10 8 -12 13 -4 9 8 -4 4 3 -10 15 -14 12 -19 19 -13 15 9
-4 11 -1 7 9 -3 9 -11 13 -16 10 -6 -4 -5 3 1 15 10 17 9 22 -4 28 -13 5 -14
7 -3 14 10 7 10 9 -2 9 -13 0 -13 1 0 10 13 8 13 10 -1 10 -9 0 -20 7 -23 16
-3 8 -2 12 4 9 6 -3 1 9 -10 28 -11 18 -22 48 -24 66 -2 18 -9 38 -16 44 -10
9 -11 9 -5 -2 5 -9 4 -12 -2 -8 -6 4 -9 22 -8 41 1 19 -2 33 -6 31 -4 -3 -9 2
-12 9 -3 8 -1 17 6 20 7 2 2 5 -10 5 -16 1 -20 6 -16 21 3 12 0 20 -8 20 -7 0
-9 3 -6 6 3 4 1 16 -6 28 -12 20 -13 27 -16 54 0 7 -6 10 -13 6 -8 -5 -9 -2
-5 9 3 10 2 17 -3 17 -6 0 -10 5 -10 11 0 5 6 7 13 4 6 -4 5 -1 -4 7 -37 30
-11 36 166 38 133 0 174 -2 178 -12 4 -10 8 -10 16 2 7 10 11 11 11 3 0 -9 23
-13 80 -13 57 0 80 -4 80 -12 0 -9 4 -8 11 2 8 11 12 12 16 3 3 -9 36 -13 113
-13 77 0 110 -4 113 -12 4 -10 8 -9 16 2 7 9 11 10 11 3 0 -8 35 -13 115 -15
63 -2 115 0 115 4 0 3 9 4 20 1 11 -3 20 -10 20 -15 0 -6 8 -4 17 3 11 10 14
10 9 2 -6 -10 28 -13 153 -13 101 0 161 4 161 10 0 6 5 10 11 10 5 0 7 -5 3
-12 -4 -7 -3 -8 5 -4 9 6 9 11 -1 24 -11 13 -11 14 7 4 18 -9 21 -7 22 11 2
17 0 19 -7 7 -5 -8 -10 -10 -10 -4 0 6 6 17 14 23 15 12 16 28 3 48 -4 6 -3
23 3 37 6 17 6 26 -1 26 -5 0 -9 8 -7 17 2 10 -5 19 -16 21 -25 5 -47 27 -38
38 4 5 -1 2 -10 -5 -12 -9 -18 -10 -18 -2 0 8 -59 11 -200 11 -127 0 -200 4
-200 10 0 6 -5 10 -11 10 -5 0 -7 -6 -3 -12 6 -10 4 -10 -7 0 -9 8 -59 12
-176 12 -114 0 -163 3 -163 11 0 8 -6 7 -17 -2 -11 -10 -14 -10 -9 -1 6 9 -27
12 -148 12 -118 0 -156 3 -156 13 0 8 -4 7 -11 -3 -8 -11 -12 -12 -16 -2 -3 8
-32 12 -94 12 -64 0 -89 3 -89 13 0 8 -4 7 -10 -3 -6 -10 -10 -11 -10 -2 0 9
-29 12 -111 12 -71 0 -108 4 -104 10 5 9 -7 14 -26 12 -4 -1 -4 8 -1 20 3 13
1 19 -5 15 -6 -4 -14 0 -17 9 -3 8 -2 13 2 10 5 -3 9 1 9 9 0 8 -4 12 -9 9 -4
-3 -15 2 -24 10 -8 9 -12 16 -8 16 3 0 1 7 -6 15 -11 13 -10 14 5 9 13 -5 16
-4 11 4 -4 7 -13 12 -20 12 -15 0 -39 47 -31 60 3 5 -7 18 -22 30 -16 12 -27
24 -25 26 7 12 0 24 -13 24 -8 0 -15 5 -15 11 0 5 5 7 11 3 6 -3 3 8 -5 25 -9
17 -19 31 -21 31 -8 0 -1 -24 10 -33 6 -5 4 -7 -4 -5 -8 2 -15 12 -17 23 -1
10 -8 21 -14 25 -7 4 -15 23 -19 41 -5 21 -13 33 -21 31 -11 -3 -11 0 1 14 9
12 9 15 2 10 -7 -4 -13 -3 -13 3 0 5 -3 17 -6 25 -6 15 76 16 906 16 502 0
915 2 918 5 3 3 11 0 19 -6 10 -9 13 -8 13 2 0 11 2 11 10 -1 5 -8 10 -10 10
-4 0 6 13 9 30 6 21 -3 30 0 30 9 0 11 2 11 10 -1 6 -10 10 -11 10 -2 0 6 8
12 18 12 14 0 15 2 2 10 -12 8 -10 10 9 10 20 0 22 2 11 15 -11 13 -10 14 3 9
13 -5 16 6 19 69 2 41 0 73 -4 70 -8 -4 -12 13 -9 31 1 5 -6 3 -16 -4 -10 -8
-15 -11 -11 -6 4 5 1 14 -6 22 -11 11 -95 13 -424 14 -269 0 -413 -3 -417 -10
-3 -5 -12 -10 -18 -10 -7 0 -6 4 3 10 9 6 10 10 3 10 -6 0 -15 -5 -18 -10 -4
-7 -229 -10 -662 -10 -580 1 -654 2 -643 16 11 12 10 13 -3 8 -9 -3 -24 -1
-34 6 -16 10 -15 10 5 5 23 -7 23 -6 5 14 -20 24 -27 27 -18 9 4 -7 -1 -4 -9
6 -9 11 -16 27 -16 37 0 9 -8 23 -17 30 -15 11 -16 11 -5 -1 6 -8 12 -19 12
-24 -1 -13 -23 23 -28 44 -2 8 -3 24 -3 35 0 18 -2 17 -14 -5 l-13 -25 -7 28
c-4 15 -11 27 -16 27 -5 0 -9 10 -10 23 0 21 -1 21 -9 2 -8 -18 -9 -19 -9 -1
-1 13 -6 16 -18 12 -14 -6 -14 -3 3 16 15 19 16 20 1 9 -15 -12 -20 -11 -32 5
-8 10 -13 24 -10 31 2 6 -5 13 -16 16 -10 3 -22 13 -25 24 -3 10 -10 27 -15
38 -8 17 -8 16 -3 -5 6 -23 4 -22 -29 10 -19 19 -33 37 -30 40 2 3 14 -6 25
-20 l20 -25 -14 25 c-9 14 -26 27 -38 28 -18 3 -20 6 -9 13 11 7 9 9 -7 9 -11
0 -30 11 -42 25 -12 14 -18 25 -12 25 5 0 14 -9 20 -20 6 -11 15 -20 20 -20 6
0 0 11 -12 25 -12 14 -31 25 -42 25 -17 0 -18 2 -6 10 12 8 11 10 -7 10 -13 0
-23 5 -23 11 0 5 6 7 13 3 6 -4 1 5 -13 18 -17 17 -29 22 -37 16 -8 -7 -10 -3
-6 14 4 18 3 20 -6 8 -9 -12 -11 -10 -11 10 0 20 -2 22 -10 10 -8 -12 -10 -11
-10 6 0 24 -18 44 -40 44 -8 0 -28 14 -43 30 -16 17 -22 27 -13 24 9 -4 21
-15 27 -25 5 -11 14 -19 20 -19 6 0 -4 15 -23 34 -23 23 -37 31 -45 24 -8 -7
-10 -3 -6 14 4 18 3 20 -6 8 -9 -12 -11 -11 -11 8 0 13 -6 22 -16 22 -9 0 -25
10 -36 23 -11 12 -16 16 -12 8 5 -9 3 -12 -4 -7 -7 4 -12 14 -12 22 0 17 -17
19 -22 3 -2 -6 -9 2 -16 17 -11 27 -11 27 3 10 8 -11 15 -15 15 -10 0 16 -23
34 -43 34 -12 0 -16 4 -11 13 5 7 2 7 -10 -2 -9 -8 -16 -10 -15 -5 4 22 -2 36
-15 31 -12 -5 -35 14 -46 38 -3 6 -11 9 -17 9 -11 -2 -16 7 -15 26 0 3 -7 11
-15 19 -13 12 -14 11 -9 -10 l7 -24 -15 25 c-8 14 -12 29 -9 34 4 5 1 6 -6 2
-6 -4 -9 -12 -6 -17 4 -5 1 -9 -4 -9 -10 0 -13 7 -10 26 1 8 -23 24 -36 24 -5
0 -3 -5 5 -11 13 -9 13 -10 0 -6 -8 2 -14 12 -12 21 2 9 -3 15 -10 14 -7 -2
-12 3 -10 11 3 12 1 12 -14 0 -10 -8 -15 -9 -12 -4 3 6 -6 21 -20 35 -18 17
-24 19 -19 7 3 -9 2 -17 -3 -17 -6 0 -10 7 -10 15 0 8 -5 15 -11 15 -5 0 -7 4
-4 10 3 6 -1 7 -9 4 -11 -4 -16 0 -16 10 0 9 -5 16 -11 16 -5 0 -7 -5 -3 -12
4 -7 3 -8 -5 -4 -9 6 -9 11 0 22 9 12 9 13 -3 9 -9 -4 -22 1 -31 9 -12 12 -17
13 -20 3 -3 -7 -6 -5 -6 5 -1 9 -6 20 -13 24 -7 5 -8 3 -3 -6 5 -9 4 -11 -3
-6 -7 4 -12 15 -13 24 0 11 -3 12 -6 5 -7 -18 -23 -16 -23 1 0 10 -7 13 -21
11 -17 -4 -19 -2 -8 11 10 12 9 13 -5 8 -9 -3 -16 -1 -16 5 0 5 -10 15 -21 22
-15 8 -19 8 -15 0 4 -6 2 -11 -3 -11 -6 0 -11 10 -12 23 0 12 -3 17 -6 10 -3
-10 -7 -10 -18 0 -7 7 -10 17 -7 22 3 6 -1 4 -10 -3 -11 -9 -18 -10 -23 -2 -3
5 -3 10 2 10 12 0 -20 20 -32 20 -5 0 -3 -5 5 -11 13 -9 13 -10 0 -6 -8 2 -13
12 -12 23 2 10 1 16 -3 12 -12 -11 -45 11 -45 30 0 14 -2 15 -10 2 -9 -14 -24
-8 -26 11 -3 22 -5 23 -14 9 -8 -12 -12 -12 -19 -2 -4 7 -17 15 -27 16 -10 2
-19 8 -19 14 0 6 -3 14 -7 18 -5 4 -8 3 -8 -3 0 -17 -29 -10 -36 9 -3 10 -10
18 -15 18 -6 0 -7 -6 -4 -12 3 -7 -2 -3 -11 10 -17 23 -51 32 -38 10 4 -8 3
-10 -2 -5 -5 5 -9 12 -9 16 0 4 -8 15 -17 25 -18 17 -25 10 -10 -10 4 -5 -4 3
-18 17 -30 32 -59 47 -82 44 -11 -2 -18 3 -18 13 0 15 -2 15 -10 2 -6 -10 -10
-11 -10 -2 0 6 -7 12 -16 12 -9 0 -25 10 -35 22 -18 20 -28 13 -11 -8 4 -5 0
-1 -10 8 -9 10 -23 18 -32 18 -9 0 -16 6 -16 13 0 8 -4 7 -10 -3 -6 -10 -10
-11 -10 -2 0 6 -9 12 -20 12 -11 0 -20 5 -20 11 0 5 -4 8 -9 4 -5 -3 -12 -1
-16 4 -3 6 -12 8 -19 5 -8 -3 -20 3 -27 13 -8 11 -21 23 -29 28 -13 8 -13 7
-1 -8 12 -15 12 -17 -3 -11 -9 3 -16 10 -16 16 0 5 -4 6 -10 3 -5 -3 -10 -1
-10 6 0 8 -4 8 -16 -1 -12 -11 -15 -11 -12 1 2 8 -3 13 -9 11 -7 -1 -13 3 -13
9 0 5 -4 8 -9 4 -6 -3 -14 3 -20 12 -10 17 -10 17 -11 -2 -1 -19 -2 -18 -10 2
-6 15 -15 21 -25 17 -9 -4 -15 -1 -15 7 0 11 -3 11 -10 -1 -6 -10 -10 -11 -10
-2 0 7 -15 12 -40 12 -22 0 -40 5 -40 10 0 6 -5 10 -11 10 -5 0 -7 -6 -4 -12
4 -7 -3 -2 -15 12 -12 14 -19 19 -15 13 3 -7 1 -13 -4 -13 -6 0 -11 5 -11 10
0 6 -9 10 -21 10 -13 0 -18 4 -13 13 6 9 4 9 -8 -1 -14 -11 -18 -10 -30 6 -8
12 -24 18 -42 18 -16 -1 -35 4 -42 11 -10 10 -13 10 -17 0 -4 -9 -6 -9 -6 1
-1 6 -10 12 -20 12 -11 0 -22 6 -24 13 -4 9 -8 8 -16 -3 -7 -10 -11 -11 -11
-2 0 6 -11 12 -25 12 -14 0 -25 5 -25 10 0 6 -5 10 -11 10 -5 0 -7 -6 -3 -12
6 -10 5 -10 -7 -1 -9 7 -30 13 -47 15 -18 1 -32 6 -32 10 0 4 -9 8 -20 8 -11
0 -20 6 -20 13 0 8 -4 7 -10 -3 -6 -10 -10 -11 -10 -2 0 7 -15 12 -40 12 -25
0 -40 5 -40 13 0 8 -4 7 -10 -3 -6 -10 -10 -11 -10 -2 0 7 -13 12 -30 12 -16
0 -30 5 -30 11 0 8 -6 7 -17 -2 -11 -10 -14 -10 -9 -1 5 9 -4 12 -33 12 -26 0
-41 5 -41 13 0 8 -4 7 -10 -3 -6 -10 -10 -11 -10 -2 0 8 -18 12 -54 12 -30 0
-58 5 -61 10 -3 6 -12 10 -18 10 -7 0 -6 -4 3 -10 9 -6 10 -10 3 -10 -6 0 -15
5 -18 10 -3 6 -17 10 -31 10 -13 0 -24 6 -24 13 0 8 -4 7 -10 -3 -6 -10 -10
-11 -10 -2 0 9 -31 12 -120 12 -82 0 -120 4 -120 11 0 8 -6 7 -17 -2 -11 -10
-14 -10 -9 -1 5 9 -18 12 -103 12 -82 0 -111 3 -111 13 0 8 -4 7 -10 -3 -6
-10 -10 -11 -10 -2 0 9 -55 12 -241 12 -161 0 -238 -3 -234 -10 8 -13 -18 -8
-27 5 -5 6 -8 5 -8 -2z m2689 -569 c14 -12 -19 -1 -35 12 -18 14 -18 14 6 3
14 -6 27 -13 29 -15z m-5552 -387 c0 -8 -6 -14 -14 -14 -9 0 -10 4 -2 14 6 7
12 13 14 13 1 0 2 -6 2 -13z m-60 -42 c0 -8 -4 -12 -9 -9 -5 3 -6 10 -3 15 9
13 12 11 12 -6z m6958 -516 c11 -16 1 -19 -13 -3 -7 8 -8 14 -3 14 5 0 13 -5
16 -11z m90 -97 c-3 -3 -11 0 -18 7 -9 10 -8 11 6 5 10 -3 15 -9 12 -12z
m-7825 -42 c0 -5 -5 -10 -11 -10 -5 0 -7 5 -4 10 3 6 8 10 11 10 2 0 4 -4 4
-10z m-90 -104 c0 -2 -7 -7 -16 -10 -8 -3 -12 -2 -9 4 6 10 25 14 25 6z m8770
-941 c7 -9 8 -15 2 -15 -5 0 -12 7 -16 15 -3 8 -4 15 -2 15 2 0 9 -7 16 -15z
m-9420 -5765 c0 -5 -2 -10 -4 -10 -3 0 -8 5 -11 10 -3 6 -1 10 4 10 6 0 11 -4
11 -10z m576 -765 c9 -8 11 -15 6 -15 -5 0 -15 7 -22 15 -7 8 -9 15 -6 15 4 0
14 -7 22 -15z m208 -207 c8 -5 7 -8 -1 -8 -7 0 -17 9 -23 19 -14 27 -12 41 2
16 6 -11 16 -23 22 -27z m50 -44 c3 -8 2 -12 -4 -9 -6 3 -10 10 -10 16 0 14 7
11 14 -7z m7589 -99 c-3 -9 -8 -14 -10 -11 -3 3 -2 9 2 15 9 16 15 13 8 -4z
m-293 -261 c0 -8 -19 -13 -24 -6 -3 5 1 9 9 9 8 0 15 -2 15 -3z m-130 -108 c0
-2 -7 -9 -15 -16 -13 -11 -14 -10 -9 4 5 14 24 23 24 12z m-80 -61 c-7 -9 -15
-13 -19 -10 -3 3 1 10 9 15 21 14 24 12 10 -5z m-125 -74 c3 -5 2 -12 -3 -15
-5 -3 -9 1 -9 9 0 17 3 19 12 6z"/>
<path d="M12836 13787 c3 -10 9 -15 12 -12 3 3 0 11 -7 18 -10 9 -11 8 -5 -6z"/>
<path d="M5880 13774 c0 -8 5 -12 10 -9 6 4 8 11 5 16 -9 14 -15 11 -15 -7z"/>
<path d="M13480 13181 c0 -10 19 -25 25 -20 1 2 -3 10 -11 17 -8 7 -14 8 -14
3z"/>
<path d="M13525 13120 c3 -5 8 -10 11 -10 2 0 4 5 4 10 0 6 -5 10 -11 10 -5 0
-7 -4 -4 -10z"/>
<path d="M14015 12470 c3 -5 8 -10 11 -10 2 0 4 5 4 10 0 6 -5 10 -11 10 -5 0
-7 -4 -4 -10z"/>
<path d="M4665 12400 c-3 -6 1 -7 9 -4 18 7 21 14 7 14 -6 0 -13 -4 -16 -10z"/>
<path d="M14550 11420 c0 -5 5 -10 11 -10 5 0 7 5 4 10 -3 6 -8 10 -11 10 -2
0 -4 -4 -4 -10z"/>
<path d="M4000 10809 c0 -5 5 -7 10 -4 6 3 10 8 10 11 0 2 -4 4 -10 4 -5 0
-10 -5 -10 -11z"/>
<path d="M4806 6347 c3 -10 9 -15 12 -12 3 3 0 11 -7 18 -10 9 -11 8 -5 -6z"/>
<path d="M4990 6100 c0 -5 5 -10 11 -10 5 0 7 5 4 10 -3 6 -8 10 -11 10 -2 0
-4 -4 -4 -10z"/>
<path d="M13709 6043 c-13 -16 -12 -17 4 -4 9 7 17 15 17 17 0 8 -8 3 -21 -13z"/>
<path d="M5090 5980 c0 -5 5 -10 11 -10 5 0 7 5 4 10 -3 6 -8 10 -11 10 -2 0
-4 -4 -4 -10z"/>
<path d="M12785 5130 c-3 -5 1 -10 10 -10 9 0 13 5 10 10 -3 6 -8 10 -10 10
-2 0 -7 -4 -10 -10z"/>
<path d="M12296 4782 c-3 -5 1 -9 9 -9 8 0 12 4 9 9 -3 4 -7 8 -9 8 -2 0 -6
-4 -9 -8z"/>
</g>
</svg>
